<svg width="195" height="60" viewBox="0 0 195 60" fill="none" xmlns="http://www.w3.org/2000/svg">
<path d="M57.9317 40.0768C56.3797 40.0768 55.0037 39.7008 53.8037 38.9488C52.6197 38.1968 51.6917 37.1488 51.0197 35.8048C50.3477 34.4448 50.0117 32.8688 50.0117 31.0768C50.0117 29.2528 50.3637 27.6688 51.0677 26.3248C51.7717 24.9808 52.7157 23.9408 53.8997 23.2048C55.0997 22.4528 56.4437 22.0768 57.9317 22.0768C59.4197 22.0768 60.7557 22.4528 61.9397 23.2048C63.1397 23.9408 64.0917 24.9808 64.7957 26.3248C65.4997 27.6688 65.8517 29.2528 65.8517 31.0768C65.8517 32.8688 65.5077 34.4448 64.8197 35.8048C64.1477 37.1488 63.2197 38.1968 62.0357 38.9488C60.8517 39.7008 59.4837 40.0768 57.9317 40.0768ZM57.9317 39.1888C58.7957 39.1888 59.5717 38.9408 60.2597 38.4448C60.9477 37.9328 61.4917 37.0848 61.8917 35.9008C62.2917 34.7168 62.4917 33.1088 62.4917 31.0768C62.4917 29.0288 62.2917 27.4128 61.8917 26.2288C61.4917 25.0448 60.9477 24.1968 60.2597 23.6848C59.5717 23.1728 58.7957 22.9168 57.9317 22.9168C57.0677 22.9168 56.2917 23.1728 55.6037 23.6848C54.9157 24.1968 54.3717 25.0448 53.9717 26.2288C53.5717 27.4128 53.3717 29.0288 53.3717 31.0768C53.3717 33.1088 53.5717 34.7168 53.9717 35.9008C54.3717 37.0848 54.9157 37.9328 55.6037 38.4448C56.2917 38.9408 57.0677 39.1888 57.9317 39.1888ZM83.4051 39.9808C82.7811 39.9808 82.2691 39.8288 81.8691 39.5248C81.4851 39.2048 81.1651 38.7888 80.9091 38.2768C80.6691 37.7648 80.4691 37.2048 80.3091 36.5968C80.1491 35.9888 79.9971 35.3808 79.8531 34.7728C79.7251 34.1648 79.5651 33.6048 79.3731 33.0928C79.1811 32.5808 78.9251 32.1728 78.6051 31.8688C78.3011 31.5488 77.8931 31.3888 77.3811 31.3888H75.5091C75.3011 31.3888 75.1971 31.4848 75.1971 31.6768V37.6288C75.1971 37.9488 75.2371 38.2208 75.3171 38.4448C75.4131 38.6688 75.6051 38.8368 75.8931 38.9488C76.1811 39.0448 76.6211 39.0928 77.2131 39.0928C77.4211 39.0928 77.5251 39.2128 77.5251 39.4528C77.5251 39.5328 77.4931 39.6128 77.4291 39.6928C77.3811 39.7568 77.3091 39.7888 77.2131 39.7888C77.0531 39.7888 76.6531 39.7808 76.0131 39.7648C75.3891 39.7328 74.6371 39.7168 73.7571 39.7168C72.9251 39.7168 72.2051 39.7328 71.5971 39.7648C71.0051 39.7808 70.6211 39.7888 70.4451 39.7888C70.2371 39.7888 70.1331 39.6768 70.1331 39.4528C70.1331 39.2128 70.2371 39.0928 70.4451 39.0928C71.0371 39.0928 71.4611 39.0368 71.7171 38.9248C71.9731 38.8128 72.1331 38.6528 72.1971 38.4448C72.2611 38.2208 72.2931 37.9488 72.2931 37.6288V24.4768C72.2931 24.1888 72.2531 23.9408 72.1731 23.7328C72.1091 23.5248 71.9491 23.3648 71.6931 23.2528C71.4531 23.1248 71.0531 23.0608 70.4931 23.0608C70.3811 23.0608 70.2931 23.0288 70.2291 22.9648C70.1811 22.8848 70.1571 22.8048 70.1571 22.7248C70.1571 22.4848 70.2691 22.3648 70.4931 22.3648C70.6051 22.3648 70.9651 22.3808 71.5731 22.4128C72.1971 22.4288 72.9251 22.4368 73.7571 22.4368C75.0851 22.4368 76.1891 22.4288 77.0691 22.4128C77.9491 22.3808 78.6771 22.3648 79.2531 22.3648C80.2291 22.3648 81.1171 22.5168 81.9171 22.8208C82.7331 23.1088 83.3891 23.5728 83.8851 24.2128C84.3811 24.8528 84.6291 25.6928 84.6291 26.7328C84.6291 27.4208 84.4931 28.0048 84.2211 28.4848C83.9491 28.9648 83.6051 29.3648 83.1891 29.6848C82.7731 29.9888 82.3251 30.2368 81.8451 30.4288C81.3811 30.6208 80.9411 30.7728 80.5251 30.8848C80.3651 30.9328 80.2771 30.9968 80.2611 31.0768C80.2611 31.1568 80.2931 31.2128 80.3571 31.2448C80.9491 31.4368 81.4211 31.7488 81.7731 32.1808C82.1411 32.5968 82.4291 33.0768 82.6371 33.6208C82.8451 34.1488 83.0131 34.6928 83.1411 35.2528C83.2851 35.8128 83.4211 36.3328 83.5491 36.8128C83.6771 37.2768 83.8371 37.6528 84.0291 37.9408C84.2211 38.2288 84.4851 38.3728 84.8211 38.3728C84.9651 38.3728 85.1091 38.3408 85.2531 38.2768C85.3971 38.1968 85.5491 38.0688 85.7091 37.8928C85.7891 37.7968 85.8611 37.7328 85.9251 37.7008C85.9891 37.6688 86.0691 37.6928 86.1651 37.7728C86.2451 37.8368 86.2771 37.9088 86.2611 37.9888C86.2611 38.0688 86.2371 38.1648 86.1891 38.2768C86.0291 38.6288 85.7011 39.0048 85.2051 39.4048C84.7251 39.7888 84.1251 39.9808 83.4051 39.9808ZM75.5091 30.5968H77.7651C78.9491 30.5968 79.8531 30.2768 80.4771 29.6368C81.1011 28.9968 81.4131 28.0288 81.4131 26.7328C81.4131 25.6608 81.1491 24.7888 80.6211 24.1168C80.1091 23.4448 79.3251 23.1088 78.2691 23.1088H75.7011C75.5731 23.1088 75.4531 23.1408 75.3411 23.2048C75.2451 23.2528 75.1971 23.3888 75.1971 23.6128V30.2608C75.1971 30.3248 75.2291 30.3968 75.2931 30.4768C75.3571 30.5568 75.4291 30.5968 75.5091 30.5968ZM90.4049 39.7888C90.1809 39.7888 90.0689 39.6768 90.0689 39.4528C90.0689 39.2288 90.1809 39.1168 90.4049 39.1168C91.2369 39.1168 91.7969 38.9968 92.0849 38.7568C92.3729 38.5008 92.5169 38.1328 92.5169 37.6528V24.4768C92.5169 24.0128 92.3809 23.6608 92.1089 23.4208C91.8369 23.1648 91.2529 23.0368 90.3569 23.0368C90.1489 23.0368 90.0449 22.9248 90.0449 22.7008C90.0449 22.4768 90.1489 22.3648 90.3569 22.3648C90.5009 22.3648 90.9089 22.3808 91.5809 22.4128C92.2689 22.4288 93.0689 22.4368 93.9809 22.4368C95.0369 22.4368 95.8689 22.4288 96.4769 22.4128C97.1009 22.3808 97.5729 22.3648 97.8929 22.3648C98.9009 22.3648 99.8849 22.5248 100.845 22.8448C101.805 23.1488 102.669 23.6448 103.437 24.3328C104.205 25.0208 104.813 25.9248 105.261 27.0448C105.725 28.1488 105.957 29.5008 105.957 31.1008C105.957 32.6368 105.725 33.9568 105.261 35.0608C104.813 36.1648 104.197 37.0688 103.413 37.7728C102.645 38.4608 101.781 38.9728 100.821 39.3088C99.8769 39.6288 98.9009 39.7888 97.8929 39.7888C97.5729 39.7888 97.1009 39.7808 96.4769 39.7648C95.8529 39.7488 95.0049 39.7408 93.9329 39.7408C93.0369 39.7408 92.2609 39.7488 91.6049 39.7648C90.9649 39.7808 90.5649 39.7888 90.4049 39.7888ZM95.9249 39.0448H97.3409C97.9969 39.0448 98.6369 38.9248 99.2609 38.6848C99.8849 38.4288 100.453 38.0048 100.965 37.4128C101.477 36.8048 101.885 35.9888 102.189 34.9648C102.493 33.9408 102.645 32.6528 102.645 31.1008C102.645 29.4848 102.509 28.1568 102.237 27.1168C101.981 26.0768 101.621 25.2688 101.157 24.6928C100.693 24.1008 100.165 23.6928 99.5729 23.4688C98.9969 23.2288 98.3889 23.1088 97.7489 23.1088H95.9249C95.8129 23.1088 95.7009 23.1408 95.5889 23.2048C95.4929 23.2528 95.4449 23.3888 95.4449 23.6128V38.5648C95.4449 38.9168 95.6049 39.0768 95.9249 39.0448ZM110.477 39.7888C110.269 39.7888 110.165 39.6608 110.165 39.4048C110.165 39.1968 110.269 39.0928 110.477 39.0928C111.373 39.0928 111.973 38.9808 112.277 38.7568C112.597 38.5328 112.757 38.1568 112.757 37.6288V24.4768C112.757 23.9968 112.613 23.6368 112.325 23.3968C112.037 23.1568 111.461 23.0368 110.597 23.0368C110.389 23.0368 110.285 22.9168 110.285 22.6768C110.285 22.4688 110.389 22.3648 110.597 22.3648C110.725 22.3648 111.333 22.3728 112.421 22.3888C113.525 22.4048 115.141 22.4128 117.269 22.4128C119.285 22.4128 120.813 22.4048 121.853 22.3888C122.893 22.3728 123.485 22.3648 123.629 22.3648C123.997 22.3648 124.189 22.5488 124.205 22.9168C124.237 23.0608 124.261 23.3008 124.277 23.6368C124.293 23.9568 124.309 24.3008 124.325 24.6688C124.341 25.0368 124.349 25.3648 124.349 25.6528C124.365 25.9408 124.373 26.1248 124.373 26.2048C124.373 26.2688 124.357 26.3408 124.325 26.4208C124.293 26.4848 124.221 26.5168 124.109 26.5168C123.997 26.5168 123.909 26.5088 123.845 26.4928C123.797 26.4608 123.749 26.3888 123.701 26.2768C123.509 25.8448 123.261 25.3888 122.957 24.9088C122.669 24.4128 122.277 23.9888 121.781 23.6368C121.301 23.2848 120.669 23.1088 119.885 23.1088H116.165C116.021 23.1088 115.901 23.1408 115.805 23.2048C115.709 23.2688 115.661 23.4048 115.661 23.6128V30.1888C115.661 30.2528 115.693 30.3248 115.757 30.4048C115.821 30.4688 115.893 30.5008 115.973 30.5008H117.197C117.869 30.5008 118.381 30.3568 118.733 30.0688C119.085 29.7808 119.341 29.4448 119.501 29.0608C119.677 28.6768 119.821 28.3488 119.933 28.0768C119.981 27.9488 120.021 27.8608 120.053 27.8128C120.101 27.7488 120.189 27.7168 120.317 27.7168C120.429 27.7168 120.501 27.7568 120.533 27.8368C120.581 27.9168 120.605 27.9968 120.605 28.0768C120.605 28.2048 120.597 28.4368 120.581 28.7728C120.581 29.0928 120.573 29.4448 120.557 29.8288C120.557 30.2128 120.557 30.5648 120.557 30.8848C120.557 31.1888 120.557 31.5568 120.557 31.9888C120.573 32.4048 120.581 32.7888 120.581 33.1408C120.597 33.4768 120.605 33.7008 120.605 33.8128C120.605 34.0528 120.509 34.1728 120.317 34.1728C120.141 34.1728 120.021 34.0688 119.957 33.8608C119.845 33.5568 119.701 33.2048 119.525 32.8048C119.349 32.3888 119.085 32.0288 118.733 31.7248C118.381 31.4048 117.869 31.2448 117.197 31.2448H115.973C115.765 31.2448 115.661 31.3648 115.661 31.6048V38.5408C115.661 38.8448 115.821 38.9968 116.141 38.9968H119.381C120.149 38.9968 120.797 38.8608 121.325 38.5888C121.853 38.3008 122.285 37.9488 122.621 37.5328C122.973 37.1008 123.245 36.6768 123.437 36.2608C123.629 35.8288 123.773 35.4688 123.869 35.1808C123.917 35.0368 123.965 34.9568 124.013 34.9408C124.077 34.9248 124.165 34.9248 124.277 34.9408C124.293 34.9408 124.301 34.9408 124.301 34.9408C124.429 34.9568 124.501 34.9968 124.517 35.0608C124.533 35.1248 124.541 35.1968 124.541 35.2768C124.541 35.3408 124.533 35.5408 124.517 35.8768C124.517 36.2128 124.509 36.6048 124.493 37.0528C124.493 37.4848 124.485 37.8928 124.469 38.2768C124.469 38.6448 124.469 38.9008 124.469 39.0448C124.469 39.2528 124.405 39.4288 124.277 39.5728C124.165 39.7168 123.997 39.7888 123.773 39.7888C123.661 39.7888 123.413 39.7808 123.029 39.7648C122.645 39.7488 122.013 39.7408 121.133 39.7408C120.253 39.7248 119.021 39.7168 117.437 39.7168C115.485 39.7168 113.877 39.7328 112.613 39.7648C111.365 39.7808 110.653 39.7888 110.477 39.7888ZM141.886 39.9808C141.262 39.9808 140.75 39.8288 140.35 39.5248C139.966 39.2048 139.646 38.7888 139.39 38.2768C139.15 37.7648 138.95 37.2048 138.79 36.5968C138.63 35.9888 138.478 35.3808 138.334 34.7728C138.206 34.1648 138.046 33.6048 137.854 33.0928C137.662 32.5808 137.406 32.1728 137.086 31.8688C136.782 31.5488 136.374 31.3888 135.862 31.3888H133.99C133.782 31.3888 133.678 31.4848 133.678 31.6768V37.6288C133.678 37.9488 133.718 38.2208 133.798 38.4448C133.894 38.6688 134.086 38.8368 134.374 38.9488C134.662 39.0448 135.102 39.0928 135.694 39.0928C135.902 39.0928 136.006 39.2128 136.006 39.4528C136.006 39.5328 135.974 39.6128 135.91 39.6928C135.862 39.7568 135.79 39.7888 135.694 39.7888C135.534 39.7888 135.134 39.7808 134.494 39.7648C133.87 39.7328 133.118 39.7168 132.238 39.7168C131.406 39.7168 130.686 39.7328 130.078 39.7648C129.486 39.7808 129.102 39.7888 128.926 39.7888C128.718 39.7888 128.614 39.6768 128.614 39.4528C128.614 39.2128 128.718 39.0928 128.926 39.0928C129.518 39.0928 129.942 39.0368 130.198 38.9248C130.454 38.8128 130.614 38.6528 130.678 38.4448C130.742 38.2208 130.774 37.9488 130.774 37.6288V24.4768C130.774 24.1888 130.734 23.9408 130.654 23.7328C130.59 23.5248 130.43 23.3648 130.174 23.2528C129.934 23.1248 129.534 23.0608 128.974 23.0608C128.862 23.0608 128.774 23.0288 128.71 22.9648C128.662 22.8848 128.638 22.8048 128.638 22.7248C128.638 22.4848 128.75 22.3648 128.974 22.3648C129.086 22.3648 129.446 22.3808 130.054 22.4128C130.678 22.4288 131.406 22.4368 132.238 22.4368C133.566 22.4368 134.67 22.4288 135.55 22.4128C136.43 22.3808 137.158 22.3648 137.734 22.3648C138.71 22.3648 139.598 22.5168 140.398 22.8208C141.214 23.1088 141.87 23.5728 142.366 24.2128C142.862 24.8528 143.11 25.6928 143.11 26.7328C143.11 27.4208 142.974 28.0048 142.702 28.4848C142.43 28.9648 142.086 29.3648 141.67 29.6848C141.254 29.9888 140.806 30.2368 140.326 30.4288C139.862 30.6208 139.422 30.7728 139.006 30.8848C138.846 30.9328 138.758 30.9968 138.742 31.0768C138.742 31.1568 138.774 31.2128 138.838 31.2448C139.43 31.4368 139.902 31.7488 140.254 32.1808C140.622 32.5968 140.91 33.0768 141.118 33.6208C141.326 34.1488 141.494 34.6928 141.622 35.2528C141.766 35.8128 141.902 36.3328 142.03 36.8128C142.158 37.2768 142.318 37.6528 142.51 37.9408C142.702 38.2288 142.966 38.3728 143.302 38.3728C143.446 38.3728 143.59 38.3408 143.734 38.2768C143.878 38.1968 144.03 38.0688 144.19 37.8928C144.27 37.7968 144.342 37.7328 144.406 37.7008C144.47 37.6688 144.55 37.6928 144.646 37.7728C144.726 37.8368 144.758 37.9088 144.742 37.9888C144.742 38.0688 144.718 38.1648 144.67 38.2768C144.51 38.6288 144.182 39.0048 143.686 39.4048C143.206 39.7888 142.606 39.9808 141.886 39.9808ZM133.99 30.5968H136.246C137.43 30.5968 138.334 30.2768 138.958 29.6368C139.582 28.9968 139.894 28.0288 139.894 26.7328C139.894 25.6608 139.63 24.7888 139.102 24.1168C138.59 23.4448 137.806 23.1088 136.75 23.1088H134.182C134.054 23.1088 133.934 23.1408 133.822 23.2048C133.726 23.2528 133.678 23.3888 133.678 23.6128V30.2608C133.678 30.3248 133.71 30.3968 133.774 30.4768C133.838 30.5568 133.91 30.5968 133.99 30.5968Z" fill="#CE8B62"/>
<path fill-rule="evenodd" clip-rule="evenodd" d="M187.287 50.403H193.849H195V51.5547V58.8469V59.9986H193.849H186.135H184.984V58.8469V55.0513V52.7064L82.1403 52.7064L77.4855 52.7064L10.0165 52.7064V55.0513V58.8469V59.9986H8.86487H1.15167H0V58.8469V51.5547V50.403H1.15167H7.7132V9.59643H1.15167H0V8.44476V1.15258V0.000919424H1.15167H8.86487H10.0165V1.15258V4.94817V7.2931L80.7437 7.2931H184.984V4.94817V1.15258V0.000916241L186.135 0.000916159L193.849 0.000915609L195 0.000915527V1.15258V8.44476V9.59643H193.849H187.287V50.403ZM187.287 7.2931L192.697 7.29309V2.30425L187.287 2.30425V4.94817V7.2931ZM184.984 9.59643L82.1403 9.59643H10.0165V50.403L77.4855 50.403L82.1403 50.403L184.984 50.403V9.59643ZM187.287 55.0513V57.6952H192.697V52.7064H187.287V55.0513ZM7.7132 4.94817V7.2931H2.30333V2.30425H7.7132V4.94817ZM7.7132 52.7064V55.0513V57.6952H2.30333V52.7064H7.7132Z" fill="#CE8B62"/>
</svg>
